<?xml version="1.0" standalone="no"?><!DOCTYPE svg PUBLIC "-//W3C//DTD SVG 1.1//EN" "http://www.w3.org/Graphics/SVG/1.1/DTD/svg11.dtd"><svg t="1621681082152" class="icon" viewBox="0 0 1024 1024" version="1.1" xmlns="http://www.w3.org/2000/svg" p-id="6225" xmlns:xlink="http://www.w3.org/1999/xlink" width="200" height="200"><defs><style type="text/css"></style></defs><path d="M311.296 774.144l-140.8 152.576c-8.704 9.216-13.824 22.016-13.824 35.84 0 29.184 23.552 52.736 52.736 52.736h598.528c12.8 0 25.6-4.608 35.84-13.824 20.992-20.48 22.016-53.76 2.56-74.752l-137.728-148.992c-58.368 31.744-124.928 49.664-196.096 49.664-73.728-0.512-141.824-19.968-201.216-53.248z" fill="#CB522E" p-id="6226"></path><path d="M921.088 417.792v-0.512c0-225.28-182.784-408.064-409.088-408.064s-409.088 182.784-409.088 409.088c0 153.088 83.968 286.208 207.872 356.352l70.144-75.776c9.728-11.264 24.576-17.408 38.912-17.408h175.616c14.848 0 28.672 6.656 38.4 16.896l73.216 79.36c128-70.144 214.016-204.8 214.016-359.936z" fill="#5161C4" p-id="6227"></path><path d="M507.904 613.376c-53.76 0-97.28-43.52-97.28-97.28h194.56c0 53.248-43.52 96.768-97.28 97.28z" fill="#FFFFFF" p-id="6228"></path><path d="M595.968 680.96h-175.616c-14.848 0-29.184 6.656-38.912 17.408l-70.144 75.776c59.392 33.28 128 52.736 200.704 52.736 71.168 0 137.728-17.92 196.096-49.664l-73.216-79.36c-10.24-10.752-24.064-16.896-38.912-16.896z" fill="#3E3E9B" p-id="6229"></path></svg>